<svg xmlns="http://www.w3.org/2000/svg" xmlns:xlink="http://www.w3.org/1999/xlink" contentStyleType="text/css" data-diagram-type="DESCRIPTION" height="545px" preserveAspectRatio="none" style="width:546px;height:545px;background:#1B1B1B;" version="1.1" viewBox="0 0 546 545" width="546px" zoomAndPan="magnify"><defs/><g><rect fill="#1B1B1B" height="545" style="stroke:none;stroke-width:1;" width="546" x="0" y="0"/><!--cluster E-commerce de Jogos Digitais--><g class="cluster" data-entity="E-commerce de Jogos Digitais" data-source-line="7" data-uid="ent0004" id="cluster_E-commerce de Jogos Digitais"><rect fill="none" height="532" rx="2.5" ry="2.5" style="stroke:#E7E7E7;stroke-width:1;" width="294.18" x="246.67" y="7"/><text fill="#FFFFFF" font-family="sans-serif" font-size="14" font-weight="bold" lengthAdjust="spacing" textLength="234.1104" x="276.7048" y="21.9951">E-commerce de Jogos Digitais</text></g><!--entity UC1--><g class="entity" data-entity="UC1" data-source-line="10" data-uid="ent0005" id="entity_UC1"><ellipse cx="393.7644" cy="126.0036" fill="#313139" rx="60.1444" ry="14.5236" style="stroke:#E7E7E7;stroke-width:0.5;"/><text fill="#FFFFFF" font-family="sans-serif" font-size="14" lengthAdjust="spacing" textLength="80.8145" x="353.3572" y="130.6521">Fazer Login</text></g><!--entity UC2--><g class="entity" data-entity="UC2" data-source-line="11" data-uid="ent0006" id="entity_UC2"><ellipse cx="393.7595" cy="59.0019" fill="#313139" rx="75.4595" ry="17.4919" style="stroke:#E7E7E7;stroke-width:0.5;"/><text fill="#FFFFFF" font-family="sans-serif" font-size="14" lengthAdjust="spacing" textLength="119.8408" x="333.8391" y="63.6503">Criar Nova Conta</text></g><!--entity UC3--><g class="entity" data-entity="UC3" data-source-line="14" data-uid="ent0007" id="entity_UC3"><ellipse cx="393.7604" cy="438.9981" fill="#313139" rx="63.5904" ry="15.1181" style="stroke:#E7E7E7;stroke-width:0.5;"/><text fill="#FFFFFF" font-family="sans-serif" font-size="14" lengthAdjust="spacing" textLength="89.6943" x="348.9132" y="443.6465">Buscar Jogos</text></g><!--entity UC4--><g class="entity" data-entity="UC4" data-source-line="15" data-uid="ent0008" id="entity_UC4"><ellipse cx="393.7552" cy="352.001" fill="#313139" rx="89.1552" ry="20.231" style="stroke:#E7E7E7;stroke-width:0.5;"/><text fill="#FFFFFF" font-family="sans-serif" font-size="14" lengthAdjust="spacing" textLength="151.8262" x="317.8421" y="356.6495">Adicionar ao Carrinho</text></g><!--entity UC5--><g class="entity" data-entity="UC5" data-source-line="16" data-uid="ent0009" id="entity_UC5"><ellipse cx="393.7593" cy="506.0019" fill="#313139" rx="74.9093" ry="17.3819" style="stroke:#E7E7E7;stroke-width:0.5;"/><text fill="#FFFFFF" font-family="sans-serif" font-size="14" lengthAdjust="spacing" textLength="118.5078" x="334.5054" y="510.6503">Finalizar Compra</text></g><!--entity UC6--><g class="entity" data-entity="UC6" data-source-line="17" data-uid="ent0010" id="entity_UC6"><ellipse cx="393.7626" cy="203.9985" fill="#313139" rx="131.0926" ry="28.6185" style="stroke:#E7E7E7;stroke-width:0.5;"/><text fill="#FFFFFF" font-family="sans-serif" font-size="14" lengthAdjust="spacing" textLength="242.8809" x="272.3221" y="208.6469">Gerenciar Biblioteca (Baixar/Jogar)</text></g><!--entity UC7--><g class="entity" data-entity="UC7" data-source-line="18" data-uid="ent0011" id="entity_UC7"><ellipse cx="393.7582" cy="282.0036" fill="#313139" rx="37.0682" ry="14.5236" style="stroke:#E7E7E7;stroke-width:0.5;"/><text fill="#FFFFFF" font-family="sans-serif" font-size="14" lengthAdjust="spacing" textLength="48.1797" x="369.6683" y="286.6521">Logout</text></g><!--entity g--><g class="entity" data-entity="g" data-source-line="4" data-uid="ent0002" id="entity_g"><ellipse cx="102.8345" cy="63.35" fill="#313139" rx="8" ry="8" style="stroke:#E7E7E7;stroke-width:0.5;"/><path d="M102.8345,71.35 L102.8345,98.35 M89.8345,79.35 L115.8345,79.35 M102.8345,98.35 L89.8345,113.35 M102.8345,98.35 L115.8345,113.35" fill="none" style="stroke:#E7E7E7;stroke-width:0.5;"/><text fill="#FFFFFF" font-family="sans-serif" font-size="14" lengthAdjust="spacing" textLength="193.6689" x="6" y="127.8451">Visitante (N&#227;o Autenticado)</text></g><!--entity u--><g class="entity" data-entity="u" data-source-line="5" data-uid="ent0003" id="entity_u"><ellipse cx="102.8304" cy="322.35" fill="#313139" rx="8" ry="8" style="stroke:#E7E7E7;stroke-width:0.5;"/><path d="M102.8304,330.35 L102.8304,357.35 M89.8304,338.35 L115.8304,338.35 M102.8304,357.35 L89.8304,372.35 M102.8304,357.35 L115.8304,372.35" fill="none" style="stroke:#E7E7E7;stroke-width:0.5;"/><text fill="#FFFFFF" font-family="sans-serif" font-size="14" lengthAdjust="spacing" textLength="115.8008" x="44.93" y="386.8451">Cliente (Logado)</text></g><!--link g to UC1--><g class="link" data-entity-1="g" data-entity-2="UC1" data-link-type="dependency" data-source-line="21" data-uid="lnk12" id="link_g_UC1"><path d="M200.04,103.99 C246.17,109.26 293.7588,114.6884 332.6788,119.1384" fill="none" id="g-to-UC1" style="stroke:#E7E7E7;stroke-width:1;"/><polygon fill="#E7E7E7" points="338.64,119.82,330.1526,114.8235,333.6724,119.252,329.2439,122.7717,338.64,119.82" style="stroke:#E7E7E7;stroke-width:1;"/></g><!--link g to UC2--><g class="link" data-entity-1="g" data-entity-2="UC2" data-link-type="dependency" data-source-line="22" data-uid="lnk13" id="link_g_UC2"><path d="M200.04,81.68 C241.25,76.83 282.4111,71.9808 319.7411,67.5908" fill="none" id="g-to-UC2" style="stroke:#E7E7E7;stroke-width:1;"/><polygon fill="#E7E7E7" points="325.7,66.89,316.2944,63.9685,320.7342,67.474,317.2288,71.9138,325.7,66.89" style="stroke:#E7E7E7;stroke-width:1;"/></g><!--link u to UC3--><g class="link" data-entity-1="u" data-entity-2="UC3" data-link-type="dependency" data-source-line="25" data-uid="lnk14" id="link_u_UC3"><path d="M160.92,369.19 C217.65,386.27 297.455,410.2993 347.215,425.2893" fill="none" id="u-to-UC3" style="stroke:#E7E7E7;stroke-width:1;"/><polygon fill="#E7E7E7" points="352.96,427.02,345.4963,420.594,348.1725,425.5778,343.1888,428.254,352.96,427.02" style="stroke:#E7E7E7;stroke-width:1;"/></g><!--link u to UC4--><g class="link" data-entity-1="u" data-entity-2="UC4" data-link-type="dependency" data-source-line="26" data-uid="lnk15" id="link_u_UC4"><path d="M160.92,352 C201.78,352 251.6,352 298.22,352" fill="none" id="u-to-UC4" style="stroke:#E7E7E7;stroke-width:1;"/><polygon fill="#E7E7E7" points="304.22,352,295.22,348,299.22,352,295.22,356,304.22,352" style="stroke:#E7E7E7;stroke-width:1;"/></g><!--link u to UC5--><g class="link" data-entity-1="u" data-entity-2="UC5" data-link-type="dependency" data-source-line="27" data-uid="lnk16" id="link_u_UC5"><path d="M136.93,390.44 C162.15,417.3 199.18,451.83 238.67,472 C265.26,485.58 291.2416,492.7158 319.0816,497.6358" fill="none" id="u-to-UC5" style="stroke:#E7E7E7;stroke-width:1;"/><polygon fill="#E7E7E7" points="324.99,498.68,316.8234,493.1748,320.0663,497.8099,315.4312,501.0527,324.99,498.68" style="stroke:#E7E7E7;stroke-width:1;"/></g><!--link u to UC6--><g class="link" data-entity-1="u" data-entity-2="UC6" data-link-type="dependency" data-source-line="28" data-uid="lnk17" id="link_u_UC6"><path d="M146.41,313.48 C171.71,292.28 205.28,266.91 238.67,250 C258.72,239.84 275.6525,233.2854 297.3225,226.6554" fill="none" id="u-to-UC6" style="stroke:#E7E7E7;stroke-width:1;"/><polygon fill="#E7E7E7" points="303.06,224.9,293.2835,223.7081,298.2788,226.3628,295.6241,231.3581,303.06,224.9" style="stroke:#E7E7E7;stroke-width:1;"/></g><!--link u to UC7--><g class="link" data-entity-1="u" data-entity-2="UC7" data-link-type="dependency" data-source-line="29" data-uid="lnk18" id="link_u_UC7"><path d="M161.01,334.93 C184.91,328.05 213.04,320.27 238.67,314 C280.07,303.88 322.3476,295.3411 353.6576,289.3311" fill="none" id="u-to-UC7" style="stroke:#E7E7E7;stroke-width:1;"/><polygon fill="#E7E7E7" points="359.55,288.2,349.9573,285.9683,354.6396,289.1426,351.4654,293.8249,359.55,288.2" style="stroke:#E7E7E7;stroke-width:1;"/></g><!--link UC4 to UC3--><g class="link" data-entity-1="UC4" data-entity-2="UC3" data-link-type="dependency" data-source-line="32" data-uid="lnk19" id="link_UC4_UC3"><path d="M393.76,372.65 C393.76,388.23 393.76,403.27 393.76,417.45" fill="none" id="UC4-to-UC3" style="stroke:#E7E7E7;stroke-width:1;stroke-dasharray:7,7;"/><polygon fill="#E7E7E7" points="393.76,423.45,397.76,414.45,393.76,418.45,389.76,414.45,393.76,423.45" style="stroke:#E7E7E7;stroke-width:1;"/><text fill="#FFFFFF" font-family="sans-serif" font-size="13" lengthAdjust="spacing" textLength="61.1851" x="351.76" y="402.6269">&#171;extend&#187;</text></g><!--SRC=[RL9BIyD04BxdLmozs1ogQ7s0IC761uY8MFG-RiPqQBeJTZV51nxyBHu4mPDuyRf_p6sQ5bVCQR-PRxvl7Ydfpe4JC5oC7UHiI3aMdTW9wmeDJg52DS62HkwX99YdKHSb9Gag9mOwDsmvX1n1zyA_2XpMZhHZXRca7K0BnPAPbKmDxroALRPEajO0EiSz9TCf6KMG4vn98HQEk0ZoR3lmb2GGlZNmBuOGBlttRHbicc1jIQ4D4YVuI0Q20Uj6_ZhRZ0cPOJHm8JE4JBJ3bhNLi683mpFC4ReZ_mceo5h_CQCIiFAVTc6Hnjh3sgeWtZJUwlPZnc7EAcmta50WGsDOZwMbRl-PX3MM_1YecKmhisnq9sQTaY6jvYCDEQn3N8X3TuXyZsOZD88cRGjtuyBGlzIkpUqjLtj59Vet_qKMSe7LQPji0RtUOBNG9ThwlxIzzSApfVOZj1sXdGZjHcZlzssEg2AT-_VvqBQ9TODM2kk3-QEVmZuS7D1z-0VpmM1H-Fm3]--></g></svg>